# xmcd CD database file
#
# Track frame offsets:
#	150
#	11502
#	26460
#	37468
#	50234
#	63762
#	76069
#	87801
#	100134
#	110810
#
# Disc length: 1686 seconds
#
# Revision: 1
# Processed by: cddbd v1.5.1PL0 Copyright (c) Steve Scherf et al.
# Submitted via: CDex 1.51
#
DISCID=7b06940a
DTITLE=Elmore James - Pickin' the Blues
DYEAR=2002
DGENRE=Blues
TTITLE0=Look On Yonder Wall
TTITLE1=Hurts Me Too
TTITLE2=Coming Home
TTITLE3=The Sky Is Crying
TTITLE4=Standing At The Crossroads
TTITLE5=Hand In Hand
TTITLE6=Rolling And Tumbling
TTITLE7=Mean Mistreatin' Mama
TTITLE8=I Done Somebody Wrong
TTITLE9=I Believe
EXTD=YEAR: 2002
EXTT0=
EXTT1=
EXTT2=
EXTT3=
EXTT4=
EXTT5=
EXTT6=
EXTT7=
EXTT8=
EXTT9=
PLAYORDER=
